# xmcd
#
# Track frame offsets:
#	150
#	18222
#	36452
#	55342
#	74275
#	89540
#	106297
#	123287
#	141987
#	158132
#	178837
#	200080
#
# Disc length: 2901 seconds
#
# Revision: 4294770690
# Processed by: cddbd v1.5.2PL0 Copyright (c) Steve Scherf et al.
# Submitted via: EZCDAudioConverter 8.3.2.1
#
DISCID=ae0b530c
DTITLE=村下孝蔵 - 歌人 1984 (30DH 168) DE-Magnetic (EZ-WAV)
DYEAR=1984
DGENRE=Pop
TTITLE0=松山行フェリー
TTITLE1=かげふみ
TTITLE2=午前零時
TTITLE3=レンガ通り
TTITLE4=ゆうこ
TTITLE5=初恋
TTITLE6=少女
TTITLE7=踊り子
TTITLE8=花れん
TTITLE9=春雨
TTITLE10=酔いしれて
TTITLE11=夢の跡
EXTD=
EXTT0=
EXTT1=
EXTT2=
EXTT3=
EXTT4=
EXTT5=
EXTT6=
EXTT7=
EXTT8=
EXTT9=
EXTT10=
EXTT11=
PLAYORDER=
